<svg width="14" height="15" viewBox="0 0 14 15" fill="none" xmlns="http://www.w3.org/2000/svg">
<path d="M9.24766 7.26826L4.00859 3.15275C3.81377 2.99963 3.52734 3.13771 3.52734 3.38449V11.6156C3.52734 11.8624 3.81377 12.0004 4.00859 11.8472L9.24766 7.73174C9.28281 7.7042 9.31125 7.66903 9.3308 7.62888C9.35035 7.58873 9.36051 7.54466 9.36051 7.5C9.36051 7.45534 9.35035 7.41127 9.3308 7.37112C9.31125 7.33097 9.28281 7.2958 9.24766 7.26826ZM9.48828 2.6875H10.3633C10.3923 2.6875 10.4201 2.69902 10.4406 2.71953C10.4611 2.74005 10.4727 2.76787 10.4727 2.79688V12.2031C10.4727 12.2321 10.4611 12.26 10.4406 12.2805C10.4201 12.301 10.3923 12.3125 10.3633 12.3125H9.48828C9.45927 12.3125 9.43145 12.301 9.41094 12.2805C9.39043 12.26 9.37891 12.2321 9.37891 12.2031V2.79688C9.37891 2.76787 9.39043 2.74005 9.41094 2.71953C9.43145 2.69902 9.45927 2.6875 9.48828 2.6875Z" fill="#878787"/>
</svg>
