<svg width="14" height="15" viewBox="0 0 14 15" fill="none" xmlns="http://www.w3.org/2000/svg">
<path d="M4.75234 7.26826L9.99141 3.15275C10.1862 2.99963 10.4727 3.13771 10.4727 3.38449V11.6156C10.4727 11.8624 10.1862 12.0004 9.99141 11.8472L4.75234 7.73174C4.71719 7.7042 4.68875 7.66903 4.6692 7.62888C4.64965 7.58873 4.63949 7.54466 4.63949 7.5C4.63949 7.45534 4.64965 7.41127 4.6692 7.37112C4.68875 7.33097 4.71719 7.2958 4.75234 7.26826ZM4.51172 2.6875H3.63672C3.60771 2.6875 3.57989 2.69902 3.55938 2.71953C3.53887 2.74005 3.52734 2.76787 3.52734 2.79688V12.2031C3.52734 12.2321 3.53887 12.26 3.55938 12.2805C3.57989 12.301 3.60771 12.3125 3.63672 12.3125H4.51172C4.54073 12.3125 4.56855 12.301 4.58906 12.2805C4.60957 12.26 4.62109 12.2321 4.62109 12.2031V2.79688C4.62109 2.76787 4.60957 2.74005 4.58906 2.71953C4.56855 2.69902 4.54073 2.6875 4.51172 2.6875Z" fill="#878787"/>
</svg>
