<svg width="55" height="35" viewBox="0 0 55 35" fill="none" xmlns="http://www.w3.org/2000/svg">
<g clip-path="url(#clip0_99_530)">
<path d="M53.4781 34.9999H1.51748C1.2801 34.9999 1.04604 34.9436 0.834094 34.8354C0.622148 34.7271 0.438234 34.5701 0.29714 34.3769C0.156046 34.1836 0.0617069 33.9596 0.0217029 33.7227C-0.0183011 33.4859 -0.00285197 33.2428 0.0668073 33.0131L2.45926 25.1462C2.55452 24.8324 2.74668 24.5578 3.00751 24.3628C3.26834 24.1677 3.5841 24.0625 3.90838 24.0625H51.3369C51.6689 24.0625 51.9917 24.1729 52.2558 24.3766C52.5198 24.5803 52.7105 24.8661 52.7985 25.1902L54.9427 33.0555C55.0052 33.2838 55.0147 33.5235 54.9704 33.756C54.9261 33.9886 54.8292 34.2076 54.6873 34.3959C54.5455 34.5842 54.3625 34.7367 54.1527 34.8415C53.9429 34.9463 53.712 35.0005 53.4781 34.9999V34.9999Z" fill="#FF2D7E"/>
<path d="M6.50082 22.464H4.47608C4.38528 22.464 4.29537 22.4458 4.2115 22.4106C4.12763 22.3754 4.05146 22.3238 3.98732 22.2587C3.92319 22.1936 3.87236 22.1164 3.83776 22.0314C3.80315 21.9465 3.78544 21.8554 3.78565 21.7635V1.72469C3.78565 1.2665 3.96546 0.827068 4.28553 0.503077C4.60559 0.179085 5.03969 -0.00292969 5.49232 -0.00292969C5.94496 -0.00292969 6.37907 0.179085 6.69913 0.503077C7.0192 0.827068 7.199 1.2665 7.199 1.72469V21.7635C7.19921 21.8561 7.18126 21.9478 7.14617 22.0333C7.11108 22.1188 7.05957 22.1963 6.99461 22.2615C6.92965 22.3267 6.85255 22.3781 6.76778 22.4129C6.68301 22.4476 6.59227 22.465 6.50082 22.464V22.464Z" fill="#FF2D7E"/>
<path d="M51.2189 22.464H49.1926C49.1018 22.464 49.0119 22.4458 48.9281 22.4106C48.8442 22.3754 48.768 22.3238 48.7039 22.2587C48.6397 22.1936 48.5889 22.1164 48.5543 22.0314C48.5197 21.9465 48.502 21.8554 48.5022 21.7635V1.72469C48.5022 1.2665 48.682 0.827068 49.0021 0.503077C49.3221 0.179086 49.7562 -0.00292969 50.2089 -0.00292969C50.6615 -0.00292969 51.0956 0.179086 51.4157 0.503077C51.7357 0.827068 51.9155 1.2665 51.9155 1.72469V21.7635C51.9158 21.8559 51.8979 21.9475 51.8629 22.0329C51.8279 22.1183 51.7765 22.1958 51.7117 22.261C51.6469 22.3261 51.57 22.3776 51.4854 22.4124C51.4008 22.4473 51.3102 22.4648 51.2189 22.464V22.464Z" fill="#FF2D7E"/>
<path d="M11.9188 6.8287C12.5102 6.82645 13.0849 6.63003 13.5566 6.26895C14.0283 5.90787 14.3715 5.40162 14.5347 4.82623H41.2706C41.4544 5.46821 41.861 6.02146 42.4156 6.38428C42.9702 6.7471 43.6355 6.89511 44.2892 6.80112C44.943 6.70713 45.5412 6.37745 45.9741 5.87267C46.4069 5.36789 46.6453 4.72193 46.6453 4.05351C46.6453 3.3851 46.4069 2.73914 45.9741 2.23436C45.5412 1.72957 44.943 1.39989 44.2892 1.3059C43.6355 1.21191 42.9702 1.35993 42.4156 1.72275C41.861 2.08557 41.4544 2.63881 41.2706 3.2808H14.5347C14.392 2.78677 14.1162 2.34274 13.7382 1.99851C13.3602 1.65428 12.8949 1.42346 12.3945 1.33192C11.8941 1.24039 11.3785 1.29176 10.9053 1.48028C10.4322 1.66881 10.0203 1.98702 9.71584 2.39925C9.41136 2.81148 9.22635 3.30142 9.18154 3.81412C9.13674 4.32683 9.23393 4.84204 9.46219 5.30196C9.69045 5.76189 10.0408 6.14836 10.4739 6.41803C10.907 6.6877 11.4057 6.8299 11.9142 6.8287H11.9188Z" fill="#FF2D7E"/>
<path d="M43.8894 8.45118C43.2975 8.45275 42.7221 8.64885 42.2498 9.00998C41.7775 9.37111 41.4338 9.87774 41.2705 10.4536H14.5346C14.3507 9.81166 13.9442 9.25842 13.3896 8.8956C12.835 8.53278 12.1697 8.38476 11.5159 8.47875C10.8622 8.57274 10.2639 8.90242 9.83108 9.4072C9.39824 9.91198 9.15991 10.5579 9.15991 11.2264C9.15991 11.8948 9.39824 12.5407 9.83108 13.0455C10.2639 13.5503 10.8622 13.88 11.5159 13.974C12.1697 14.068 12.835 13.9199 13.3896 13.5571C13.9442 13.1943 14.3507 12.6411 14.5346 11.9991H41.2705C41.4134 12.4926 41.6893 12.9361 42.0673 13.2798C42.4452 13.6235 42.9103 13.8539 43.4103 13.9451C43.9103 14.0363 44.4255 13.9847 44.8982 13.7962C45.3709 13.6076 45.7824 13.2895 46.0865 12.8775C46.3906 12.4655 46.5754 11.9759 46.6201 11.4636C46.6647 10.9513 46.5676 10.4365 46.3395 9.97693C46.1114 9.51737 45.7613 9.13121 45.3286 8.86172C44.8958 8.59223 44.3975 8.45007 43.8894 8.45118V8.45118Z" fill="#FF2D7E"/>
<path d="M43.8894 16.3496C43.2975 16.3512 42.7221 16.5473 42.2498 16.9084C41.7775 17.2696 41.4338 17.7762 41.2705 18.3521H14.5346C14.3507 17.7101 13.9442 17.1569 13.3896 16.794C12.835 16.4312 12.1697 16.2832 11.5159 16.3772C10.8622 16.4712 10.2639 16.8009 9.83108 17.3056C9.39824 17.8104 9.15991 18.4564 9.15991 19.1248C9.15991 19.7932 9.39824 20.4392 9.83108 20.944C10.2639 21.4487 10.8622 21.7784 11.5159 21.8724C12.1697 21.9664 12.835 21.8184 13.3896 21.4556C13.9442 21.0928 14.3507 20.5395 14.5346 19.8975H41.2705C41.4134 20.3911 41.6893 20.8345 42.0673 21.1783C42.4452 21.522 42.9103 21.7523 43.4103 21.8435C43.9103 21.9347 44.4255 21.8832 44.8982 21.6946C45.3709 21.506 45.7824 21.1879 46.0865 20.7759C46.3906 20.3639 46.5754 19.8743 46.6201 19.362C46.6647 18.8497 46.5676 18.3349 46.3395 17.8754C46.1114 17.4158 45.7613 17.0296 45.3286 16.7602C44.8958 16.4907 44.3975 16.3485 43.8894 16.3496V16.3496Z" fill="#FF2D7E"/>
</g>
<defs>
<clipPath id="clip0_99_530">
<rect width="55" height="35" fill="white"/>
</clipPath>
</defs>
</svg>
