<svg width="16" height="13" viewBox="0 0 16 13" fill="none" xmlns="http://www.w3.org/2000/svg">
<path d="M13.6802 7.70003C13.4402 7.46003 13.0402 7.62003 13.0402 7.94003V9.22003H10.8802C10.8002 9.22003 10.6402 9.22003 10.3202 9.14003C9.84017 9.06003 9.28018 8.82003 8.80018 8.42003C8.72018 8.34003 8.64018 8.26003 8.56018 8.18003C8.56018 8.26003 8.56018 8.34003 8.48018 8.42003C8.32018 8.98003 8.08018 9.46003 7.76018 9.86003L7.68018 9.94003C7.84018 10.02 7.92018 10.18 8.08018 10.26C8.72018 10.66 9.36018 10.9 9.84018 10.98C10.3202 11.06 10.7202 11.14 10.7202 11.14H12.8802V12.42C12.8802 12.74 13.2802 12.9 13.5202 12.66L15.7602 10.42C15.9202 10.26 15.9202 10.02 15.7602 9.86003L13.6802 7.70003Z" fill="#878787"/>
<path d="M3.60021 3.77994C3.60021 3.77994 3.76021 3.77994 4.08021 3.85994C4.32021 3.85994 4.56021 3.93994 4.80021 4.01994C5.20021 4.17994 5.52021 4.41994 5.76021 4.73994C5.92021 4.17994 6.24021 3.69994 6.56021 3.29994C6.64021 3.21994 6.64021 3.21994 6.72021 3.13994C6.56021 2.97994 6.40021 2.89994 6.32021 2.81994C5.68021 2.33994 5.04021 2.09994 4.56021 2.01994C4.08021 1.93994 3.68021 1.93994 3.60021 1.93994H0.960215C0.800215 1.93994 0.720215 2.01994 0.720215 2.17994V3.53994C0.720215 3.69994 0.800215 3.77994 0.960215 3.77994H3.60021Z" fill="#878787"/>
<path d="M8.08021 6.58009C8.08021 5.86009 8.24021 5.38009 8.48021 4.98009C8.64021 4.74009 8.88021 4.50009 9.12021 4.34009C9.52021 4.10009 9.92021 3.94009 10.3202 3.86009C10.4802 3.86009 10.6402 3.78009 10.7202 3.78009C10.8002 3.78009 10.8002 3.78009 10.8002 3.78009H12.9602V5.06009C12.9602 5.38009 13.3602 5.54009 13.6002 5.30009L15.8402 3.06009C16.0002 2.90009 16.0002 2.66009 15.8402 2.50009L13.6002 0.260087C13.3602 0.0200868 12.9602 0.180087 12.9602 0.500087V1.78009H10.8002C10.8002 1.78009 10.4802 1.78009 10.0802 1.86009C9.76021 1.94009 9.36021 2.02009 8.96021 2.18009C8.40021 2.58009 7.68021 3.06009 7.12021 3.70009C6.88021 4.02009 6.64021 4.50009 6.48021 4.98009C6.32021 5.46009 6.24021 6.02009 6.24021 6.58009C6.24021 7.30009 6.08021 7.78009 5.84021 8.10009C5.68021 8.34009 5.44021 8.58009 5.28021 8.66009C4.96021 8.90009 4.56021 9.06009 4.24021 9.06009C3.84021 9.22009 3.60021 9.22009 3.60021 9.22009H0.960215C0.800215 9.22009 0.720215 9.30009 0.720215 9.46009V10.8201C0.720215 10.9801 0.800215 11.0601 0.960215 11.0601H3.60021C3.68021 11.0601 4.00021 11.0601 4.40021 10.9801C4.72021 10.9001 5.04021 10.8201 5.44021 10.6601C6.00021 10.4201 6.72021 10.0201 7.20021 9.30009C7.44021 8.98009 7.68021 8.58009 7.84021 8.10009C8.00021 7.70009 8.08021 7.14009 8.08021 6.58009Z" fill="#878787"/>
</svg>
