<?xml version="1.0" encoding="utf-8"?>
<!-- Generator: Adobe Illustrator 25.4.1, SVG Export Plug-In . SVG Version: 6.00 Build 0)  -->
<svg version="1.1" id="Ebene_1" xmlns="http://www.w3.org/2000/svg" xmlns:xlink="http://www.w3.org/1999/xlink" x="0px" y="0px"
	 viewBox="0 0 837.2 110.4" style="enable-background:new 0 0 837.2 110.4;" xml:space="preserve">
<style type="text/css">
	.st0{fill:#FFFFFF;}
</style>
<g id="Ebene_1_00000075884864922706116120000000563849609568733854_">
	<g>
		<polygon class="st0" points="371.4,30.2 349.7,67.7 328,30.2 324.2,30.2 324.2,80.3 328.7,80.3 328.7,39.8 348.5,73.8 350.8,73.8 
			370.6,39.6 370.7,80.3 375.2,80.3 375.1,30.2 		"/>
		<path class="st0" d="M405.9,30.2l-23.1,50.2h5l6.3-13.8H422l6.3,13.8h5l-23.1-50.2H405.9z M420.2,62.5H396l12.1-26.7L420.2,62.5z"
			/>
		<path class="st0" d="M476.2,57.3c2-2.7,3.1-6.1,3.1-10.1c0-5.3-1.8-9.6-5.4-12.6c-3.6-3-8.6-4.5-14.9-4.5h-18.1v50.2h4.6V64.2H459
			c1.4,0,2.9-0.1,4.5-0.3l11.7,16.4h5.3L468,62.9C471.6,61.8,474.3,59.9,476.2,57.3z M445.5,34.4H459c5.1,0,9,1.1,11.7,3.4
			c2.6,2.2,4,5.4,4,9.5s-1.3,7.3-4,9.5s-6.6,3.4-11.7,3.4h-13.5V34.4z"/>
		<polygon class="st0" points="531.8,30.2 526,30.2 496,61 496,30.2 491.5,30.2 491.5,80.3 496,80.3 496,67.1 506.6,56.3 
			527.5,80.3 533.2,80.3 509.6,53 		"/>
		<polygon class="st0" points="545.4,56.9 571.6,56.9 571.6,52.8 545.4,52.8 545.4,34.4 574.7,34.4 574.7,30.2 540.8,30.2 
			540.8,80.3 575.8,80.3 575.8,76.1 545.4,76.1 		"/>
		<polygon class="st0" points="579.6,30.2 579.6,34.4 597.3,34.4 597.3,80.3 601.8,80.3 601.8,34.4 619.5,34.4 619.5,30.2 		"/>
	</g>
	<g>
		<path class="st0" d="M800,43.5c-1.5-1.3-3.6-1.9-6.5-1.9h-7.7V56h7.7c2.9,0,5-0.6,6.5-1.9c1.5-1.2,2.2-3,2.2-5.3
			C802.2,46.6,801.5,44.8,800,43.5z"/>
		<polygon class="st0" points="736.7,44.3 730.4,60 743,60 		"/>
		<path class="st0" d="M825.4,0H11.8C5.3,0,0,5.3,0,11.8v86.8c0,6.5,5.3,11.8,11.8,11.8h813.6c6.5,0,11.8-5.3,11.8-11.8V11.8
			C837.1,5.3,831.8,0,825.4,0z M259.8,37.5l-0.4,1.2c0,0.1-0.2,0.2-0.3,0.2h-0.2c-0.1,0-0.3-0.1-0.3-0.2l-0.4-1.2
			c-0.1-0.4-0.7-0.3-0.6,0.1v0.9c0,0.2-0.1,0.3-0.3,0.3H257c-0.2,0-0.3-0.1-0.3-0.3v-4c0-0.2,0.1-0.3,0.3-0.3h0.7
			c0.1,0,0.3,0.1,0.3,0.2l0.8,2.2c0.1,0.3,0.5,0.3,0.6,0l0.8-2.2c0-0.1,0.2-0.2,0.3-0.2h0.7c0.2,0,0.3,0.1,0.3,0.3v4
			c0,0.2-0.1,0.3-0.3,0.3h-0.3c-0.2,0-0.3-0.1-0.3-0.3v-0.9l0,0C260.5,37.2,259.9,37.1,259.8,37.5z M253.3,35h-0.7
			c-0.2,0-0.3-0.1-0.3-0.3v-0.1c0-0.2,0.1-0.3,0.3-0.3h3.1c0.2,0,0.3,0.1,0.3,0.3v0.1c0,0.2-0.1,0.3-0.3,0.3H255
			c-0.2,0-0.3,0.1-0.3,0.3v3.2c0,0.2-0.1,0.3-0.3,0.3h-0.3c-0.2,0-0.3-0.1-0.3-0.3v-3.2C253.6,35.2,253.5,35,253.3,35z M164.4,56.7
			l-10.9-12.4c-0.1-0.2-0.4-0.2-0.5,0l-39.4,46.1c-0.1,0.1-0.2,0.1-0.3,0.1H96.2c-0.3,0-0.4-0.3-0.3-0.6l10.5-12.3l37.3-43.2
			c0.1-0.1,0.2-0.1,0.3-0.1h17.7c0.1,0,0.2,0,0.3,0.1l27.6,31.3c0.1,0.1,0.3,0.2,0.5,0L203,55.1c0.2-0.1,0.2-0.4,0-0.5l-40.9-34.1
			c-0.2-0.2-0.1-0.6,0.2-0.6h20.2c0.1,0,0.2,0,0.2,0.1l66.8,55.6c0.2,0.2,0.1,0.6-0.2,0.6h-20.2c-0.1,0-0.2,0-0.2-0.1l-14.7-12.3
			c-0.1-0.1-0.3-0.1-0.4,0l-14.9,12.3c-0.1,0.1-0.1,0.1-0.2,0.1h-17.8c-0.1,0-0.2,0-0.3-0.1c-2.9-3.4-8.4-9.9-8.5-9.9H143
			c-0.3,0-0.4-0.3-0.3-0.6l6.9-8.1c0.1-0.1,0.2-0.1,0.3-0.1H164C164.4,57.3,164.6,57,164.4,56.7z M89.4,76.1l-10.1-27l-10.1,27H50.7
			L35.3,34.3h14l10.6,28.6l10.7-28.6h17.3l10.4,28.5h0.5l10.3-28.5h14.2l-15.4,41.8L89.4,76.1L89.4,76.1z M218.4,42.7l10.2-8.4
			c0.1-0.1,0.1-0.1,0.2-0.1h20.4c0.3,0,0.5,0.4,0.2,0.6l-20.5,16.7c-0.1,0.1-0.3,0.1-0.4,0l-10.1-8.4
			C218.2,43.1,218.2,42.8,218.4,42.7z M294.7,4H640v102.3H294.7V4z M816.3,48.9c0,3.7-0.9,6.9-2.7,9.6c-1.8,2.7-4.3,4.8-7.6,6.3
			s-7.1,2.2-11.6,2.2h-8.6v12.9h-13.9V30.7h22.5c4.4,0,8.3,0.7,11.6,2.2s5.8,3.6,7.6,6.3C815.4,41.9,816.3,45.2,816.3,48.9z
			 M765.4,79.8h-14.5l-3.9-9.6h-20.8l-3.9,9.6h-14.2l21.7-49.2h13.7L765.4,79.8z M673.8,62.6c1.1,2.1,2.8,3.8,4.8,5
			c2.1,1.2,4.5,1.8,7.1,1.8c4.5,0,8.4-1.9,11.6-5.8l8.9,8c-2.4,3-5.4,5.3-9,6.9s-7.7,2.4-12.2,2.4c-5.2,0-9.8-1.1-13.9-3.3
			c-4.1-2.2-7.3-5.2-9.7-9.1c-2.3-3.9-3.5-8.3-3.5-13.2s1.2-9.3,3.5-13.2s5.6-6.9,9.7-9.1c4.1-2.2,8.7-3.3,13.9-3.3
			c4.5,0,8.5,0.8,12.2,2.4c3.6,1.6,6.6,3.9,9,6.9l-8.9,8c-3.2-3.8-7-5.8-11.6-5.8c-2.7,0-5,0.6-7.1,1.8s-3.7,2.8-4.8,5
			c-1.1,2.1-1.7,4.6-1.7,7.3C672,58,672.6,60.5,673.8,62.6z"/>
	</g>
</g>
</svg>
